<svg height="487pt" viewBox="0 -46 487.00003 487" width="487pt" xmlns="http://www.w3.org/2000/svg"><path d="m370 156.3125v200.6875c-.011719 20.429688-16.570312 36.988281-37 37h-296c-8.433594.011719-16.617188-2.871094-23.179688-8.167969-3.347656-2.691406-6.207031-5.945312-8.445312-9.609375-3.523438-5.792968-5.3828125-12.445312-5.375-19.222656v-200.550781l161.144531 136.449219c13.804688 11.691406 34.042969 11.683593 47.839844-.015626zm0 0" fill="#e48e66"/><path d="m370 156.144531v.167969l-161.015625 136.566406c-13.796875 11.703125-34.035156 11.710938-47.839844.019532l-161.144531-136.449219v-.304688c0-20.433593 16.566406-37 37-37h296c20.433594 0 37 16.566407 37 37zm0 0" fill="#f8ec7d"/><path d="m364.605469 376.25c-2.238281 3.664062-5.097657 6.914062-8.453125 9.597656-.410156-.25-.785156-.550781-1.117188-.898437l-92.59375-94.210938c-2.457031-2.558593-2.402344-6.617187.128906-9.101562 2.527344-2.488281 6.585938-2.480469 9.101563.019531l92.59375 94.210938c.121094.121093.234375.253906.339844.382812zm0 0" fill="#af593c"/><path d="m107.042969 290.722656-92.085938 94.183594c-.339843.351562-.722656.664062-1.136719.925781-3.347656-2.691406-6.207031-5.945312-8.445312-9.609375.097656-.128906.210938-.242187.324219-.363281l92.082031-94.183594c1.609375-1.683593 4-2.375 6.261719-1.804687 2.257812.566406 4.039062 2.308594 4.660156 4.554687.621094 2.242188-.015625 4.648438-1.660156 6.296875zm0 0" fill="#af593c"/><path d="m367 0c66.273438 0 120 53.726562 120 120s-53.726562 120-120 120-120-53.726562-120-120v-.429688c.238281-66.105468 53.894531-119.570312 120-119.570312zm0 0" fill="#6fe3ff"/><path d="m376.898438 120 35.050781-35.050781c2.734375-2.734375 2.734375-7.164063 0-9.898438s-7.164063-2.734375-9.898438 0l-35.050781 35.050781-35.050781-35.050781c-2.734375-2.734375-7.164063-2.734375-9.898438 0s-2.734375 7.164063 0 9.898438l35.050781 35.050781-35.050781 35.050781c-2.734375 2.734375-2.734375 7.164063 0 9.898438s7.164063 2.734375 9.898438 0l35.050781-35.050781 35.050781 35.050781c2.734375 2.734375 7.164063 2.734375 9.898438 0s2.734375-7.164063 0-9.898438zm0 0" fill="#2561a1"/></svg>