<svg height="487pt" viewBox="0 -46 487.00003 487" width="487pt" xmlns="http://www.w3.org/2000/svg"><path d="m370 156.3125v200.6875c-.011719 20.429688-16.570312 36.988281-37 37h-296c-8.433594.011719-16.617188-2.871094-23.179688-8.167969-3.347656-2.691406-6.207031-5.945312-8.445312-9.609375-3.523438-5.792968-5.3828125-12.445312-5.375-19.222656v-200.550781l161.144531 136.449219c13.804688 11.691406 34.042969 11.683593 47.839844-.015626zm0 0" fill="#e48e66"/><path d="m370 156.144531v.167969l-161.015625 136.566406c-13.796875 11.703125-34.035156 11.710938-47.839844.019532l-161.144531-136.449219v-.304688c0-20.433593 16.566406-37 37-37h296c20.433594 0 37 16.566407 37 37zm0 0" fill="#f8ec7d"/><path d="m364.605469 376.25c-2.238281 3.664062-5.097657 6.914062-8.453125 9.597656-.410156-.25-.785156-.550781-1.117188-.898437l-92.59375-94.210938c-2.457031-2.558593-2.402344-6.617187.128906-9.101562 2.527344-2.488281 6.585938-2.480469 9.101563.019531l92.59375 94.210938c.121094.121093.234375.253906.339844.382812zm0 0" fill="#af593c"/><path d="m107.042969 290.722656-92.085938 94.183594c-.339843.351562-.722656.664062-1.136719.925781-3.347656-2.691406-6.207031-5.945312-8.445312-9.609375.097656-.128906.210938-.242187.324219-.363281l92.082031-94.183594c1.609375-1.683593 4-2.375 6.261719-1.804687 2.257812.566406 4.039062 2.308594 4.660156 4.554687.621094 2.242188-.015625 4.648438-1.660156 6.296875zm0 0" fill="#af593c"/><path d="m367 0c66.273438 0 120 53.726562 120 120s-53.726562 120-120 120-120-53.726562-120-120v-.429688c.238281-66.105468 53.894531-119.570312 120-119.570312zm0 0" fill="#6fe3ff"/><path d="m447 124.859375c-3.867188 0-7 3.132813-7 7v13.589844h-14.5c.042969-.933594.070312-1.863281.070312-2.800781-.003906-4.710938-.574218-9.402344-1.699218-13.976563h12.929687c3.867188 0 7-3.136719 7-7v-26.472656c0-3.863281-3.132812-7-7-7-3.867187 0-7 3.136719-7 7v19.472656h-11.34375c-3.902343-7.167969-9.257812-13.441406-15.722656-18.421875 2.015625-4.730469 3.042969-9.824219 3.027344-14.96875-.003907-11.757812-5.371094-22.867188-14.582031-30.171875l10.570312-10.570313c2.734375-2.734374 2.734375-7.167968 0-9.898437-2.734375-2.734375-7.167969-2.734375-9.898438 0l-13.671874 13.667969c-7.269532-2.164063-15.019532-2.132813-22.269532.089844l-13.761718-13.757813c-2.730469-2.734375-7.164063-2.734375-9.898438 0s-2.734375 7.164063 0 9.898437l10.742188 10.742188c-9.082032 7.3125-14.363282 18.34375-14.363282 30-.003906 5.066406.980469 10.085938 2.890625 14.773438-6.128906 4.667968-11.28125 10.5-15.160156 17.160156-.445313.433594-.832031.921875-1.144531 1.457031h-11.015625v-19.472656c0-3.863281-3.132813-7-7-7-3.863281 0-7 3.136719-7 7v26.472656c0 3.863281 3.136719 7 7 7h12.929687c-1.125 4.574219-1.695312 9.265625-1.699218 13.976563 0 .9375.027343 1.871093.070312 2.800781h-14.5v-13.589844c0-3.867187-3.132812-7-7-7s-7 3.132813-7 7v20.589844c0 3.867187 3.132812 7 7 7h23.886719c1.183593 3.992187 2.789062 7.84375 4.792969 11.492187h-16.917969c-3.867188 0-7 3.132813-7 7v16.46875c0 3.867188 3.132812 7 7 7 3.863281 0 7-3.132812 7-7v-9.46875h20.65625c22.703125 21.707032 58.464843 21.707032 81.164062 0h20.65625v9.46875c0 3.867188 3.136719 7 7 7 3.867188 0 7-3.132812 7-7v-16.46875c0-3.867187-3.132812-7-7-7h-16.917969c2.003907-3.648437 3.609376-7.5 4.792969-11.492187h23.886719c3.867188 0 7-3.132813 7-7v-20.589844c0-3.867187-3.132812-7-7-7zm-124.570312 17.789063c.007812-5.226563.929687-10.410157 2.726562-15.320313 27.035156 9.804687 56.652344 9.808594 83.691406.011719 1.796875 4.902344 2.714844 10.085937 2.722656 15.308594 0 1.375-.066406 2.746093-.195312 4.113281-28.246094 12.578125-60.503906 12.578125-88.75 0-.125-1.363281-.195312-2.738281-.195312-4.113281zm21.714843-38.269532c19.171875-11.484375 43.886719-6.957031 57.746094 10.574219-22.628906 7.652344-47.148437 7.648437-69.777344-.007813 3.339844-4.21875 7.417969-7.800781 12.03125-10.566406zm23.054688-47.667968c13.5625.015624 24.546875 11.007812 24.5625 24.570312.003906 2.625-.414063 5.234375-1.242188 7.722656-14.886719-6.515625-31.804687-6.566406-46.730469-.136718-.769531-2.457032-1.160156-5.015626-1.160156-7.585938.019532-13.5625 11.007813-24.554688 24.570313-24.570312zm0 0" fill="#2561a1"/></svg>