<svg height="457pt" viewBox="0 -33 457.00003 457" width="457pt" xmlns="http://www.w3.org/2000/svg"><path d="m370 153.183594v200.6875c-.011719 20.429687-16.570312 36.988281-37 37h-296c-8.433594.007812-16.617188-2.875-23.179688-8.167969-3.347656-2.695313-6.207031-5.945313-8.445312-9.613281-3.523438-5.789063-5.3828125-12.441406-5.375-19.21875v-200.550782l161.144531 136.449219c13.804688 11.691407 34.042969 11.683594 47.839844-.015625zm0 0" fill="#e48e66"/><path d="m370 153.015625v.167969l-161.015625 136.566406c-13.796875 11.699219-34.035156 11.707031-47.839844.015625l-161.144531-136.445313v-.304687c0-20.433594 16.566406-37 37-37h296c20.433594 0 37 16.566406 37 37zm0 0" fill="#f8ec7d"/><path d="m364.605469 373.117188c-2.238281 3.667968-5.097657 6.917968-8.453125 9.601562-.410156-.25-.785156-.554688-1.117188-.898438l-92.59375-94.210937c-2.457031-2.558594-2.402344-6.617187.128906-9.105469 2.527344-2.488281 6.585938-2.476562 9.101563.019532l92.59375 94.210937c.121094.125.234375.253906.339844.382813zm0 0" fill="#af593c"/><path d="m107.042969 287.59375-92.085938 94.183594c-.339843.351562-.722656.660156-1.136719.925781-3.347656-2.695313-6.207031-5.945313-8.445312-9.613281.097656-.128906.210938-.238282.324219-.359375l92.082031-94.183594c1.609375-1.683594 4-2.375 6.261719-1.804687 2.257812.566406 4.039062 2.304687 4.660156 4.550781.621094 2.246093-.015625 4.652343-1.660156 6.300781zm0 0" fill="#af593c"/><path d="m311.808594 199.359375c-21.332032-22.457031-33.691406-51.960937-34.730469-82.917969-.058594-1.421875-.078125-2.851562-.078125-4.28125v-63.519531l88.738281-48.640625 91.261719 48.640625v62.257813c-.019531 51.03125-30.632812 97.078124-77.679688 116.839843l-12.621093 5.453125-1.277344.546875-12.3125-5.367187c-15.566406-6.816406-29.609375-16.679688-41.300781-29.011719zm0 0" fill="#6fe3ff"/><path d="m352.792969 147.269531c-2.050781.003907-3.996094-.894531-5.324219-2.453125l-24-28.113281c-1.664062-1.894531-2.179688-4.539063-1.347656-6.921875.832031-2.382812 2.882812-4.132812 5.363281-4.582031 2.484375-.445313 5.015625.476562 6.628906 2.414062l19.5625 22.910157 50.585938-41.164063c3-2.4375 7.410156-1.984375 9.847656 1.011719 2.441406 3 1.988281 7.410156-1.011719 9.847656l-55.890625 45.480469c-1.246093 1.015625-2.804687 1.570312-4.414062 1.570312zm0 0" fill="#2561a1"/></svg>