<svg xmlns="http://www.w3.org/2000/svg" height="512pt" version="1.1" viewBox="0 -3 512.00073 512" width="512pt">
<g id="surface1">
<path d="M 466.582031 357.167969 L 443.050781 333.640625 C 437.191406 327.785156 427.691406 327.789062 421.835938 333.648438 C 416.457031 339.03125 416.03125 347.46875 420.535156 353.351562 L 311.089844 436.945312 L 309.671875 435.523438 C 303.8125 429.664062 294.3125 429.664062 288.453125 435.523438 C 282.597656 441.378906 282.597656 450.878906 288.453125 456.738281 L 322.152344 490.433594 C 332.726562 501.007812 346.832031 506.832031 361.863281 506.832031 C 376.898438 506.832031 391 501.007812 401.574219 490.433594 L 461 431.015625 C 482.898438 409.117188 485.402344 375.992188 466.582031 357.167969 Z M 466.582031 357.167969 " style=" stroke:none;fill-rule:nonzero;fill:rgb(73.333333%,36.470588%,29.803922%);fill-opacity:1;" />
<path d="M 466.582031 357.167969 L 443.050781 333.640625 C 437.191406 327.785156 427.691406 327.789062 421.835938 333.648438 C 416.457031 339.03125 416.03125 347.46875 420.535156 353.351562 L 365.765625 395.179688 L 431.296875 460.714844 L 461 431.015625 C 482.898438 409.117188 485.402344 375.992188 466.582031 357.167969 Z M 466.582031 357.167969 " style=" stroke:none;fill-rule:nonzero;fill:rgb(64.313725%,30.980392%,24.313725%);fill-opacity:1;" />
<path d="M 495.453125 222.421875 C 488.632812 215.601562 480.375 210.738281 471.363281 208.109375 C 478.667969 198.382812 482.621094 186.605469 482.621094 174.222656 C 482.621094 159.105469 476.734375 144.894531 466.046875 134.203125 C 455.359375 123.515625 441.148438 117.628906 426.03125 117.628906 C 425.261719 117.628906 424.496094 117.644531 423.730469 117.675781 C 424.335938 102.4375 418.835938 86.996094 407.230469 75.386719 C 396.539062 64.699219 382.328125 58.816406 367.214844 58.816406 C 366.457031 58.816406 365.703125 58.828125 364.949219 58.859375 C 364.976562 58.105469 364.992188 57.347656 364.992188 56.589844 C 364.992188 41.472656 359.105469 27.261719 348.417969 16.570312 C 337.726562 5.886719 323.519531 0 308.402344 0 C 293.292969 0 279.082031 5.882812 268.386719 16.570312 L 245.390625 39.570312 C 244.503906 40.457031 243.730469 41.453125 243.089844 42.53125 L 73.109375 329.476562 L 48.171875 354.417969 C 38.140625 364.445312 33.035156 378.113281 33.789062 392.898438 C 34.515625 407.105469 40.628906 420.644531 51 431.011719 L 110.421875 490.433594 C 120.996094 501.007812 135.101562 506.832031 150.132812 506.832031 C 165.167969 506.832031 179.273438 501.007812 189.847656 490.433594 L 217.585938 462.691406 C 230.191406 465.414062 243.074219 466.789062 256.007812 466.789062 C 256.007812 466.789062 256.007812 466.789062 256.011719 466.789062 C 304.445312 466.789062 349.984375 447.925781 384.238281 413.675781 L 460.167969 337.742188 C 460.234375 337.675781 460.300781 337.609375 460.363281 337.542969 L 495.453125 302.457031 C 517.515625 280.394531 517.519531 244.492188 495.453125 222.421875 Z M 495.453125 222.421875 " style=" stroke:none;fill-rule:nonzero;fill:rgb(100%,80.784314%,74.901961%);fill-opacity:1;" />
<path d="M 495.453125 222.421875 C 488.632812 215.601562 480.375 210.738281 471.363281 208.109375 C 478.667969 198.382812 482.621094 186.605469 482.621094 174.222656 C 482.621094 159.105469 476.734375 144.894531 466.046875 134.203125 C 455.359375 123.515625 441.148438 117.628906 426.03125 117.628906 C 425.261719 117.628906 424.496094 117.644531 423.734375 117.675781 L 80.699219 460.710938 L 110.421875 490.433594 C 120.996094 501.007812 135.101562 506.832031 150.136719 506.832031 C 165.171875 506.832031 179.273438 501.007812 189.847656 490.433594 L 217.589844 462.691406 C 230.195312 465.414062 243.078125 466.789062 256.007812 466.789062 C 256.011719 466.789062 256.011719 466.789062 256.011719 466.789062 C 304.445312 466.789062 349.984375 447.925781 384.238281 413.675781 L 460.167969 337.742188 C 460.234375 337.675781 460.300781 337.609375 460.363281 337.542969 L 495.453125 302.457031 C 517.515625 280.394531 517.519531 244.492188 495.453125 222.421875 Z M 495.453125 222.421875 " style=" stroke:none;fill-rule:nonzero;fill:rgb(100%,65.490196%,56.078431%);fill-opacity:1;" />
<path d="M 290.664062 63.628906 L 243.613281 16.578125 C 232.925781 5.886719 218.714844 0 203.597656 0 C 188.480469 0 174.273438 5.886719 163.582031 16.574219 C 151.972656 28.183594 146.480469 43.628906 147.09375 58.871094 C 146.324219 58.84375 145.558594 58.816406 144.785156 58.816406 C 129.671875 58.816406 115.460938 64.699219 104.765625 75.390625 C 93.15625 87 87.664062 102.445312 88.273438 117.6875 C 87.507812 117.65625 86.738281 117.628906 85.964844 117.628906 C 70.847656 117.628906 56.636719 123.519531 45.957031 134.207031 C 35.265625 144.894531 29.378906 159.105469 29.378906 174.21875 C 29.378906 186.609375 33.34375 198.386719 40.65625 208.117188 C 31.636719 210.746094 23.371094 215.597656 16.546875 222.425781 C -5.46875 244.445312 -5.515625 280.234375 16.398438 302.308594 C 16.453125 302.363281 16.507812 302.417969 16.5625 302.472656 L 51.699219 337.605469 C 51.746094 337.652344 51.789062 337.699219 51.835938 337.746094 C 51.835938 337.746094 51.835938 337.746094 51.839844 337.746094 C 51.84375 337.75 51.847656 337.753906 51.851562 337.757812 C 62.539062 348.4375 76.746094 354.316406 91.851562 354.320312 C 91.855469 354.320312 91.855469 354.320312 91.859375 354.320312 C 106.96875 354.320312 121.175781 348.433594 131.871094 337.746094 C 148.335938 321.277344 152.507812 297.097656 144.390625 276.722656 C 155.167969 274.535156 165.082031 269.246094 173.042969 261.289062 C 182.125 252.199219 187.457031 240.765625 189.0625 228.921875 C 193.746094 230.15625 198.621094 230.8125 203.59375 230.8125 C 203.597656 230.8125 203.597656 230.8125 203.601562 230.8125 C 218.710938 230.8125 232.921875 224.925781 243.613281 214.238281 C 254.300781 203.550781 260.1875 189.339844 260.1875 174.222656 C 260.1875 169.253906 259.539062 164.390625 258.304688 159.710938 C 270.515625 158.070312 281.800781 152.519531 290.664062 143.65625 C 312.722656 121.597656 312.726562 85.695312 290.664062 63.628906 Z M 290.664062 63.628906 " style=" stroke:none;fill-rule:nonzero;fill:rgb(73.333333%,36.470588%,29.803922%);fill-opacity:1;" />
<path d="M 203.59375 230.808594 C 203.597656 230.808594 203.597656 230.808594 203.601562 230.808594 C 218.710938 230.808594 232.917969 224.925781 243.609375 214.234375 C 254.300781 203.546875 260.1875 189.339844 260.1875 174.222656 C 260.1875 169.253906 259.539062 164.386719 258.304688 159.710938 C 270.515625 158.066406 281.800781 152.519531 290.664062 143.65625 C 312.722656 121.59375 312.726562 85.695312 290.664062 63.625 L 243.613281 16.578125 C 232.925781 5.886719 218.714844 0 203.597656 0 C 188.480469 0 174.273438 5.886719 163.582031 16.574219 C 151.972656 28.183594 146.480469 43.628906 147.09375 58.871094 C 146.324219 58.84375 145.558594 58.816406 144.785156 58.816406 C 129.671875 58.816406 115.460938 64.699219 104.765625 75.390625 C 93.15625 87 87.664062 102.445312 88.273438 117.6875 L 201.347656 230.757812 C 202.09375 230.789062 202.84375 230.808594 203.59375 230.808594 Z M 203.59375 230.808594 " style=" stroke:none;fill-rule:nonzero;fill:rgb(64.313725%,30.980392%,24.313725%);fill-opacity:1;" />
</g>
</svg>